<svg xmlns="http://www.w3.org/2000/svg" xmlns:xlink="http://www.w3.org/1999/xlink" width="184" height="184" viewBox="0 0 184 184">
  <defs>
    <filter id="Rectangle_56" x="0" y="0" width="184" height="184" filterUnits="userSpaceOnUse">
      <feOffset dy="3" input="SourceAlpha"/>
      <feGaussianBlur stdDeviation="1.5" result="blur"/>
      <feFlood flood-opacity="0.161"/>
      <feComposite operator="in" in2="blur"/>
      <feComposite in="SourceGraphic"/>
    </filter>
  </defs>
  <g id="Group_24" data-name="Group 24" transform="translate(-429.5 -172.5)">
    <g transform="matrix(1, 0, 0, 1, 429.5, 172.5)" filter="url(#Rectangle_56)">
      <rect id="Rectangle_56-2" data-name="Rectangle 56" width="175" height="175" rx="87.5" transform="translate(4.5 1.5)" fill="#fff"/>
    </g>
    <g id="Group_23" data-name="Group 23" transform="translate(456 188)">
      <path id="Path_2" data-name="Path 2" d="M29.088,30.9c3.25,0,3.509-33.589,10.841-39.506S54.413,4.156,60.32,4.444C65.5,4.7,81.895,1.537,81.895,10.681S48.911,40.96,54.614,41.905c18.355,3.041,45.176-3.219,44.925,8.263S81.895,59.124,81.895,68.027c0,16.37,4.042,20.978-6.45,19.854S52.927,62.354,39.929,63.529s6.708,51.859-10.841,48.614-11.445-11.9-18.926-16.711-20.179,5.731-28-7.55,28-28.314,28-33.977c0-12.98-25.414-1.037-34-12s2.163-11.445,10.471-22.6S-18.359.549-3.4-3.116,18.3,30.9,29.088,30.9Z" transform="translate(32.216 23.611)" fill="#b1d5b9"/>
      <g id="Path_1" data-name="Path 1" transform="translate(27.001 9.767)" fill="none">
        <path d="M30.475,32.729c3.33,0,3.6-35.1,11.109-41.286S56.426,4.783,62.479,5.085c5.3.264,22.108-3.038,22.108,6.518s-33.8,31.644-27.956,32.632c18.808,3.178,46.293-3.364,46.036,8.635s-18.08,9.359-18.08,18.663c0,17.107,4.142,21.924-6.609,20.749S54.9,65.6,41.584,66.832s6.874,54.2-11.109,50.8S18.747,105.2,11.081,100.172s-20.678,5.99-28.7-7.891,28.7-29.59,28.7-35.508c0-13.565-26.042-1.084-34.844-12.539s2.217-11.961,10.73-23.623-5.113-19.6,10.22-23.428S19.42,32.729,30.475,32.729Z" stroke="none"/>
        <path d="M 44.68912124633789 -5.255645751953125 C 44.64139175415039 -5.229446411132812 44.55938720703125 -5.177963256835938 44.44377899169922 -5.082817077636719 C 44.15463256835938 -4.844856262207031 42.62834167480469 -3.301544189453125 40.97088623046875 3.731803894042969 C 39.80190277099609 8.692329406738281 38.96530151367188 14.60414123535156 38.22719573974609 19.82003784179688 C 37.67365646362305 23.73168182373047 37.19559097290039 27.10990905761719 36.64486312866211 29.70713806152344 C 36.30340576171875 31.31742858886719 35.95980072021484 32.50093078613281 35.56350708007812 33.43166351318359 C 35.22394561767578 34.22914123535156 34.82790374755859 34.88018035888672 34.35276031494141 35.4219970703125 C 33.33092498779297 36.58718109130859 31.95378112792969 37.22886657714844 30.47500991821289 37.22886657714844 C 28.31350708007812 37.22886657714844 26.21219635009766 36.47426605224609 24.22946548461914 34.98603820800781 C 22.79288482666016 33.90774536132812 21.39677810668945 32.43166351318359 19.96136474609375 30.47349548339844 C 17.58296585083008 27.22888946533203 15.41913223266602 23.12230682373047 13.12823867797852 18.77459716796875 C 10.70523834228516 14.17620086669922 8.199737548828125 9.421241760253906 5.536384582519531 5.983596801757812 C 4.278465270996094 4.359970092773438 3.073318481445312 3.150848388671875 1.954444885253906 2.389808654785156 C 0.9965744018554688 1.738265991210938 0.1178436279296875 1.421554565429688 -0.7319488525390625 1.421554565429688 C -1.048179626464844 1.421554565429688 -1.381179809570312 1.464683532714844 -1.721717834472656 1.54974365234375 C -5.479972839355469 2.488533020019531 -5.991302490234375 3.398223876953125 -5.99603271484375 3.407310485839844 C -6.040451049804688 3.492660522460938 -6.089073181152344 3.729621887207031 -6.092300415039062 4.138679504394531 C -6.097763061523438 4.83172607421875 -5.976493835449219 5.766975402832031 -5.848098754882812 6.75714111328125 C -5.337493896484375 10.69507598876953 -4.565826416015625 16.6461181640625 -9.3978271484375 23.26493072509766 C -12.43643188476562 27.42718505859375 -15.70536804199219 30.259765625 -18.33200836181641 32.53578948974609 C -20.20269775390625 34.15676879882812 -22.13707733154297 35.83293151855469 -22.45845031738281 36.84966278076172 C -22.49197387695312 36.95574188232422 -22.57048797607422 37.20413970947266 -22.35997009277344 37.85238647460938 C -22.14907073974609 38.50172424316406 -21.60219573974609 39.66030883789062 -20.19445037841797 41.49232482910156 C -19.02113342285156 43.01924514770508 -17.18795013427734 43.99757766723633 -14.42530059814453 44.57124328613281 C -11.56899261474609 45.16434860229492 -8.279182434082031 45.21261978149414 -4.585617065429688 45.21261978149414 L -4.009925842285156 45.21240997314453 L -3.436073303222656 45.21222305297852 C 1.177902221679688 45.21222305297852 4.963531494140625 45.2993049621582 8.187423706054688 46.39474487304688 C 12.95550918579102 48.01488876342773 15.58140563964844 51.70070266723633 15.58140563964844 56.77320098876953 C 15.58140563964844 59.83045196533203 13.27521896362305 62.23372268676758 11.01927947998047 64.18142700195312 C 9.019924163818359 65.90757751464844 6.345405578613281 67.83797454833984 3.513839721679688 69.88169860839844 C -1.464134216308594 73.47466278076172 -7.106300354003906 77.5469970703125 -10.77690887451172 81.65447235107422 C -12.49126434326172 83.57286834716797 -13.58803558349609 85.29486846923828 -14.03680419921875 86.77265930175781 C -14.41426086425781 88.01568603515625 -14.31882476806641 88.99008178710938 -13.71768188476562 90.03083038330078 C -12.54000854492188 92.06966400146484 -11.24044799804688 93.43757629394531 -9.744697570800781 94.21274566650391 C -8.535926818847656 94.83917999267578 -7.105140686035156 95.13095092773438 -5.241889953613281 95.13095092773438 C -3.650238037109375 95.13095092773438 -1.973823547363281 94.92505645751953 -0.1989669799804688 94.70707702636719 C 1.645278930664062 94.48057556152344 3.552322387695312 94.24634552001953 5.455657958984375 94.24634552001953 C 8.683925628662109 94.24634552001953 11.33169555664062 94.95403289794922 13.55023956298828 96.40985107421875 C 17.58700942993164 99.05878448486328 18.92296600341797 102.5048294067383 19.99644470214844 105.2737884521484 C 20.70738220214844 107.1076431274414 21.26894760131836 108.5561370849609 22.54996871948242 109.7392044067383 C 24.19604873657227 111.259391784668 27.14302825927734 112.4286193847656 31.3090934753418 113.2143936157227 C 31.58415603637695 113.2662658691406 31.83011245727539 113.2925796508789 32.04006958007812 113.2925796508789 C 32.40194702148438 113.2925796508789 32.45344543457031 113.2362213134766 32.51863479614258 113.1648864746094 C 32.81194686889648 112.8439102172852 33.77757263183594 111.3837432861328 33.88840484619141 106.0716171264648 C 33.97579956054688 101.8835754394531 33.50842666625977 96.70703887939453 33.05642700195312 91.70095062255859 C 32.48027801513672 85.31967926025391 31.93609237670898 79.29230499267578 32.34050750732422 74.37301635742188 C 32.5937385559082 71.29289245605469 33.21417617797852 68.89019775390625 34.23730087280273 67.02767944335938 C 35.74396896362305 64.28486633300781 38.20655059814453 62.6239128112793 41.17138290405273 62.35080718994141 C 41.61688232421875 62.30976486206055 42.07088470458984 62.2889518737793 42.52073669433594 62.2889518737793 C 46.69436264038086 62.2889518737793 50.96113586425781 64.03557586669922 55.56486511230469 67.62863922119141 C 59.17965698242188 70.44987487792969 62.57350921630859 74.03541564941406 65.85561370849609 77.50291442871094 C 68.51132202148438 80.30861663818359 71.01973724365234 82.95872497558594 73.38311004638672 84.92916107177734 C 76.03382110595703 87.13913726806641 77.61100769042969 87.71463775634766 78.46734619140625 87.80824279785156 C 79.32151031494141 87.90161895751953 80.04525756835938 87.948974609375 80.61848449707031 87.948974609375 C 80.70558166503906 87.948974609375 80.7861328125 87.94789886474609 80.860595703125 87.94598388671875 C 80.87000274658203 87.72679138183594 80.87442779541016 87.453369140625 80.86915588378906 87.11478424072266 C 80.85177612304688 86.001220703125 80.73928070068359 84.55501556396484 80.6090087890625 82.88045501708984 C 80.37659454345703 79.89272308349609 80.08731842041016 76.17439270019531 80.08731842041016 71.53298950195312 C 80.08731842041016 69.74317932128906 80.49669647216797 68.07510375976562 81.30404663085938 66.5750732421875 C 81.99436187744141 65.29255676269531 82.98717498779297 64.12522888183594 84.25494384765625 63.10547256469727 C 86.22188568115234 61.52334976196289 88.59517669677734 60.4746208190918 90.89034271240234 59.46038818359375 C 92.96234130859375 58.54478454589844 95.10488128662109 57.59801483154297 96.47846984863281 56.41510009765625 C 97.64505004882812 55.41045379638672 98.13471984863281 54.3553466796875 98.16860961914062 52.7733268737793 C 98.18209075927734 52.14355850219727 98.02640533447266 51.98451614379883 97.91273498535156 51.86838912963867 C 97.59957122802734 51.54843139648438 96.50088500976562 50.74855804443359 93.07084655761719 50.23239135742188 C 89.885986328125 49.75312042236328 85.81005096435547 49.68853759765625 82.24302673339844 49.68855667114258 C 80.78121948242188 49.68857574462891 79.30484008789062 49.70047378540039 77.74178314208984 49.71307754516602 C 76.16142272949219 49.72580718994141 74.52725982666016 49.73897171020508 72.89315795898438 49.73897171020508 C 67.60588073730469 49.73897171020508 61.45011138916016 49.61211776733398 55.88188171386719 48.67128753662109 C 55.04096603393555 48.52915954589844 54.28244781494141 48.22749328613281 53.62742614746094 47.77466201782227 C 52.66734313964844 47.11091232299805 51.96402740478516 46.13164138793945 51.64707183837891 45.0172233581543 C 51.46536254882812 44.37836837768555 50.91242599487305 42.43426513671875 52.91506958007812 39.65318298339844 C 53.5130500793457 38.82276153564453 54.33213424682617 37.89726257324219 55.49273681640625 36.74053955078125 C 57.4131965637207 34.8265380859375 60.09017562866211 32.47090911865234 62.92432022094727 29.97697448730469 C 66.90282440185547 26.47605895996094 71.41215515136719 22.50801849365234 74.88230133056641 18.85038757324219 C 79.82534790039062 13.64025115966797 80.07585906982422 11.72211456298828 80.08730316162109 11.59119415283203 C 80.08616638183594 11.19911956787109 80.02445220947266 10.91732788085938 79.90382385253906 10.75357818603516 C 79.75296783447266 10.54880523681641 79.41800689697266 10.32762145996094 78.96067810058594 10.13074493408203 C 77.58819580078125 9.539909362792969 75.36605072021484 9.240386962890625 72.35590362548828 9.240470886230469 C 70.51978302001953 9.240516662597656 68.63751220703125 9.349014282226562 66.97679901123047 9.444747924804688 C 65.52859497070312 9.528221130371094 64.27786254882812 9.600326538085938 63.18532180786133 9.600326538085938 C 62.84586334228516 9.600326538085938 62.54167556762695 9.593391418457031 62.25540542602539 9.579116821289062 C 57.79988479614258 9.357162475585938 54.5343017578125 5.337326049804688 51.07696533203125 1.081474304199219 C 49.66281890869141 -0.6593170166015625 48.20050811767578 -2.459358215332031 46.83786392211914 -3.741920471191406 C 45.55092239379883 -4.953231811523438 44.8753547668457 -5.205596923828125 44.68912124633789 -5.255645751953125 M 44.64926910400391 -9.766891479492188 C 51.07563018798828 -9.767898559570312 57.25224685668945 4.824310302734375 62.47930145263672 5.084701538085938 C 62.69587707519531 5.095489501953125 62.93233108520508 5.100334167480469 63.18532943725586 5.100334167480469 C 65.36966705322266 5.100334167480469 68.84036254882812 4.740562438964844 72.35579681396484 4.740463256835938 C 78.40494537353516 4.74029541015625 84.58731842041016 5.805320739746094 84.58731842041016 11.60228729248047 C 84.58731842041016 21.15834808349609 50.78846740722656 43.24663925170898 56.63177871704102 44.23420333862305 C 61.66335296630859 45.08437728881836 67.31700134277344 45.23897171020508 72.89315795898438 45.23897171020508 C 76.07753753662109 45.23897171020508 79.23820495605469 45.18859481811523 82.24296569824219 45.18856811523438 C 93.64495849609375 45.18846893310547 102.8165435791016 45.9135627746582 102.6675720214844 52.86968231201172 C 102.4105682373047 64.86895751953125 84.58731842041016 62.22895431518555 84.58731842041016 71.53298950195312 C 84.58731842041016 87.04082489013672 87.99021911621094 92.44898223876953 80.61849212646484 92.44898223876953 C 79.85809326171875 92.44898223876953 78.98358154296875 92.39149475097656 77.97831726074219 92.28160095214844 C 67.48017883300781 91.13392639160156 55.48135757446289 66.7889404296875 42.52073669433594 66.7889404296875 C 42.20885467529297 66.7889404296875 41.89716720581055 66.80299377441406 41.58417510986328 66.83183288574219 C 28.67834854125977 68.02070617675781 47.23296356201172 117.7925796508789 32.04006195068359 117.7925796508789 C 31.55293273925781 117.7925796508789 31.0336799621582 117.7417831420898 30.47500991821289 117.6364135742188 C 12.49213409423828 114.2446212768555 18.74719619750977 105.2024536132812 11.08140563964844 100.1721420288086 C 9.421825408935547 99.08312225341797 7.511493682861328 98.746337890625 5.455657958984375 98.746337890625 C 2.123542785644531 98.746337890625 -1.591293334960938 99.63095855712891 -5.241897583007812 99.63095855712891 C -9.742767333984375 99.63095855712891 -14.14588165283203 98.28643798828125 -17.61434173583984 92.28160095214844 C -25.63178253173828 78.40132904052734 11.08140563964844 62.69203567504883 11.08140563964844 56.77320098876953 C 11.08140563964844 49.87395095825195 4.342567443847656 49.71223449707031 -3.436073303222656 49.71223449707031 C -3.816932678222656 49.71223449707031 -4.200439453125 49.71261978149414 -4.585624694824219 49.71261978149414 C -11.80124664306641 49.71261978149414 -19.65653228759766 49.57781600952148 -23.76265716552734 44.23420333862305 C -32.56484222412109 32.77928924560547 -21.54607391357422 32.27359771728516 -13.0323486328125 20.61157989501953 C -4.51861572265625 8.949554443359375 -18.14559173583984 1.014015197753906 -2.812263488769531 -2.816108703613281 C -2.101936340332031 -2.993545532226562 -1.407318115234375 -3.078453063964844 -0.7319412231445312 -3.078453063964844 C 13.17155838012695 -3.078453063964844 19.93194198608398 32.72886657714844 30.47500991821289 32.72886657714844 C 33.80492401123047 32.72886657714844 34.07073974609375 -2.373779296875 41.58417510986328 -8.557403564453125 C 42.61003112792969 -9.401687622070312 43.63309478759766 -9.766731262207031 44.64926910400391 -9.766891479492188 Z" stroke="none" fill="#355836"/>
      </g>
      <path id="Path_3" data-name="Path 3" d="M0,0S16.521,13.989,25.138,31.753c6.006,12.381,3.682,39.3,3.682,39.3" transform="translate(68.315 75.371)" fill="none" stroke="#355836" stroke-width="6"/>
    </g>
  </g>
</svg>
