<svg id="undraw_social_distancing_2g0u" xmlns="http://www.w3.org/2000/svg" width="452.877" height="387.721" viewBox="0 0 452.877 387.721">
  <ellipse id="Ellipse_5" data-name="Ellipse 5" cx="47.536" cy="96.992" rx="47.536" ry="96.992" transform="translate(14.055 67.76)" fill="#355836"/>
  <path id="Path_37" data-name="Path 37" d="M266.007,321.969c2.371-42.22,7.149-70.738,7.2-71.021l-1.037-.176c-.048.283-4.834,28.847-7.209,71.122-2.192,39.017-2.721,98.032,7.209,157.608l1.037-.172C263.291,419.854,263.819,360.928,266.007,321.969Z" transform="translate(-204.853 -156.211)" fill="#3f3d56"/>
  <rect id="Rectangle_12" data-name="Rectangle 12" width="48.749" height="1.052" transform="translate(61.097 168.086) rotate(-28.157)" fill="#3f3d56"/>
  <rect id="Rectangle_13" data-name="Rectangle 13" width="1.052" height="48.749" transform="translate(15.723 157.539) rotate(-61.858)" fill="#3f3d56"/>
  <ellipse id="Ellipse_6" data-name="Ellipse 6" cx="61.669" cy="125.83" rx="61.669" ry="125.83" transform="translate(329.538 0)" fill="#355836"/>
  <path id="Path_38" data-name="Path 38" d="M926.364,223.191c3.077-54.782,9.276-91.785,9.338-92.153l-.983-.166c-.062.368-6.27,37.414-9.35,92.248-2.843,50.608-3.529,127.156,9.35,204.429l.983-.164C922.839,350.207,923.524,273.745,926.364,223.191Z" transform="translate(-535.905 -96.071)" fill="#3f3d56"/>
  <rect id="Rectangle_14" data-name="Rectangle 14" width="63.243" height="0.997" transform="translate(390.655 130.319) rotate(-28.157)" fill="#3f3d56"/>
  <rect id="Rectangle_15" data-name="Rectangle 15" width="0.997" height="63.243" transform="translate(331.789 116.312) rotate(-61.858)" fill="#3f3d56"/>
  <ellipse id="Ellipse_7" data-name="Ellipse 7" cx="23.041" cy="47.014" rx="23.041" ry="47.014" transform="translate(293.865 191.714)" fill="#e6e6e6"/>
  <path id="Path_39" data-name="Path 39" d="M759,507.765l.136.255,20.833-11.151-.47-.879-20.456,10.949a350.774,350.774,0,0,1,3.494-35.1l-.983-.166a364.114,364.114,0,0,0-3.778,40.943l-20.631-11.043-.47.879,20.833,11.151.249-.465c-.781,19.836-.343,44.638,3.8,69.485l.983-.164C758.024,555.372,757.924,528.332,759,507.765Z" transform="translate(-442.115 -267.012)" fill="#3f3d56"/>
  <path id="Path_40" data-name="Path 40" d="M579.343,712.177c-122.727-38.85-234.013-36.781-305.759-28.2-77.727,9.293-127.049,28.006-127.538,28.193l-.358-.931c.49-.188,49.928-18.945,127.778-28.253a741.117,741.117,0,0,1,138.008-3.53,719.883,719.883,0,0,1,168.17,31.773Z" transform="translate(-145.688 -370.377)" fill="#3f3d56"/>
  <path id="Path_41" data-name="Path 41" d="M462.2,718.3s.344-7.212,7.4-6.374" transform="translate(-304.444 -387.484)" fill="#3f3d56"/>
  <circle id="Ellipse_8" data-name="Ellipse 8" cx="3.531" cy="3.531" r="3.531" transform="translate(152.231 316.894)" fill="#355836"/>
  <rect id="Rectangle_16" data-name="Rectangle 16" width="0.997" height="6.978" transform="translate(155.188 326.372)" fill="#3f3d56"/>
  <path id="Path_42" data-name="Path 42" d="M720.2,721.3s.344-7.212,7.4-6.374" transform="translate(-433.852 -388.989)" fill="#3f3d56"/>
  <circle id="Ellipse_9" data-name="Ellipse 9" cx="3.531" cy="3.531" r="3.531" transform="translate(280.824 318.389)" fill="#355836"/>
  <rect id="Rectangle_17" data-name="Rectangle 17" width="0.997" height="6.978" transform="translate(283.78 327.868)" fill="#3f3d56"/>
  <path id="Path_43" data-name="Path 43" d="M295.2,696.3s.344-7.212,7.4-6.374" transform="translate(-220.68 -376.45)" fill="#3f3d56"/>
  <circle id="Ellipse_10" data-name="Ellipse 10" cx="3.531" cy="3.531" r="3.531" transform="translate(68.995 305.929)" fill="#355836"/>
  <rect id="Rectangle_18" data-name="Rectangle 18" width="0.997" height="6.978" transform="translate(71.951 315.407)" fill="#3f3d56"/>
  <path id="Path_44" data-name="Path 44" d="M404.2,677.3s.344-7.212,7.4-6.374" transform="translate(-275.353 -366.92)" fill="#3f3d56"/>
  <circle id="Ellipse_11" data-name="Ellipse 11" cx="3.531" cy="3.531" r="3.531" transform="translate(123.323 296.459)" fill="#355836"/>
  <rect id="Rectangle_19" data-name="Rectangle 19" width="0.997" height="6.978" transform="translate(126.279 305.937)" fill="#3f3d56"/>
  <path id="Path_45" data-name="Path 45" d="M677.2,704.3s.344-7.212,7.4-6.374" transform="translate(-412.284 -380.462)" fill="#3f3d56"/>
  <circle id="Ellipse_12" data-name="Ellipse 12" cx="3.531" cy="3.531" r="3.531" transform="translate(259.391 309.916)" fill="#355836"/>
  <rect id="Rectangle_20" data-name="Rectangle 20" width="0.997" height="6.978" transform="translate(262.348 319.394)" fill="#3f3d56"/>
  <path id="Path_46" data-name="Path 46" d="M971.177,681.78,991.691,712.2l-19.1,19.1-2.476-4.952,4.244-9.9s-.707-9.2-3.183-11.672-13.44-17.331-13.44-17.331Z" transform="translate(-552.995 -372.395)" fill="#ffb8b8"/>
  <path id="Path_47" data-name="Path 47" d="M898.02,484.5s3.89,6.157-4.245,32.684c0,0,37.945,64.041,31.932,68.285s-22.284,13.637-26.528,10.808-35.113-98.69-35.113-98.69Z" transform="translate(-506.012 -273.446)" fill="#2f2e41"/>
  <path id="Path_48" data-name="Path 48" d="M987.9,731.808l6.19,6.19c3.183,3.183,5.305,7.781-.707,11.672s-26.881,18.392-33.954,13.794,8.489-8.842,8.489-8.842,2.573-9.541,3.939-7.423,1.366,6.362,1.366,6.362Z" transform="translate(-552.919 -397.488)" fill="#2f2e41"/>
  <path id="Path_49" data-name="Path 49" d="M828.459,711.929s-11.318,20.868-11.318,23.344.707,9.55.707,9.55l-21.575,5.305-7.428-3.537,2.476-6.366s13.44-4.6,16.27-13.44,6.013-18.038,6.013-18.038Z" transform="translate(-468.283 -385.921)" fill="#ffb8b8"/>
  <circle id="Ellipse_13" data-name="Ellipse 13" cx="14.855" cy="14.855" r="14.855" transform="translate(358.408 88.681)" fill="#ffb8b8"/>
  <path id="Path_50" data-name="Path 50" d="M886.774,289.341l7.092,20.378,15.544-6.938S898.8,286.512,898.8,284.389Z" transform="translate(-517.401 -173.073)" fill="#ffb8b8"/>
  <path id="Path_51" data-name="Path 51" d="M856.688,439.8h18.746s13.44,20.514,5.659,42.089a111.862,111.862,0,0,0-3.555,13.4c-2.715,12.584-5.419,29.629-8.189,45.292-3.891,22-7.915,41.276-12.289,41.626-8.842.707-26.037.589-26.037-2.948S842.541,473.4,842.541,473.4l2.476-4.244.468-18.488A11.151,11.151,0,0,1,856.688,439.8Z" transform="translate(-489.438 -251.022)" fill="#2f2e41"/>
  <path id="Path_52" data-name="Path 52" d="M803.083,761.613s4.068,6.9,3.006,11.849-2.83,4.244-10.611,4.952-34.308.707-34.308-4.244,20.693-11.382,20.781-9.4.795,5.868-1.328,6.575-.177.177-.177.177Z" transform="translate(-454.401 -412.438)" fill="#2f2e41"/>
  <path id="Path_53" data-name="Path 53" d="M871.167,525s-1.539,25.125-11.8,17.645,4-20.991,4-20.991Z" transform="translate(-501.792 -292.081)" fill="#fff"/>
  <path id="Path_54" data-name="Path 54" d="M891.066,381.585a2.979,2.979,0,0,0,3.05-.361,3.124,3.124,0,0,0,1.157-1.971c1.484-8.553,3.29-32.265,4.33-44.255a50.543,50.543,0,0,0-5.27-26.769l-3.843-5.284a3.016,3.016,0,0,0-3.612-1.014s-12,12.448-12.042,12.928c-.188,2.064-1.616,6.637-9.059,14.08-8.143,8.144-8.189,15.251-8.008,17.236q.018.2.018.391a8.721,8.721,0,0,0,.359,2.631c3.411,10.754.74,23.628-3.55,37.067a3.031,3.031,0,0,0,1.222,3.289c1.253.852-.25-.412.2.135,2.956,3.623,7.211-1.426,12.077-6.935,1.7-1.919,3.617-4.094,5.881-6.359,3.113-3.114,9.063,3.991,11.828,3.991A12.843,12.843,0,0,1,891.066,381.585Z" transform="translate(-501.209 -181.753)" fill="#575a89"/>
  <path id="Path_55" data-name="Path 55" d="M897.928,325.717s7.77,6.552,3.356,15.05-3.827,14.765-3.827,14.765-1.175,58.377-14.968,55.541L876.215,428.4l-11.331-4.09,6.552-15.278s-5.248-.326-3.714-3.9c1.077-2.511,6.88-29.765,10.238-45.766,1.423-6.781,2.408-11.541,2.408-11.541S884.832,323.949,897.928,325.717Z" transform="translate(-506.422 -193.755)" fill="#575a89"/>
  <path id="Path_56" data-name="Path 56" d="M784.367,322.283,780,350.946l2.357-30.649Z" transform="translate(-391.231 -160.654)" opacity="0.2"/>
  <path id="Path_57" data-name="Path 57" d="M861.965,241.135s-2.5-19.436,17.88-13.063c0,0,14.553-2.67,19.326,15.534L904,262.689l-2.355-1.282-1.1,2.4-3.817.967-1.633-3.242-.79,3.936-31.259,3.116s14-8.28,14.222-23.119l-2.667,2.818Z" transform="translate(-504.909 -144.181)" fill="#2f2e41"/>
  <path id="Path_58" data-name="Path 58" d="M763.014,536.459l6.971-46.446-5.669,50.14Z" transform="translate(-382.712 -245.78)" opacity="0.2"/>
  <circle id="Ellipse_14" data-name="Ellipse 14" cx="7.86" cy="7.86" r="7.86" transform="translate(383.834 76.221)" fill="#2f2e41"/>
  <path id="Path_59" data-name="Path 59" d="M914.3,218.419a7.854,7.854,0,0,1,7.856-7.346c-.162-.021-.323-.046-.489-.056a7.86,7.86,0,1,0-1.009,15.688c.165.011.328.006.492.007a7.854,7.854,0,0,1-6.851-8.292Z" transform="translate(-530.71 -136.262)" fill="#2f2e41"/>
  <path id="Path_60" data-name="Path 60" d="M733.906,338.3l-6.916,37.065,8.964-40.939Z" transform="translate(-364.643 -167.743)" opacity="0.2"/>
  <path id="Path_61" data-name="Path 61" d="M874.913,279.475l-4.031,3.039c-4.151-2.089-7.264-6.922-8.4-11.535l4.392-2.216C867.224,273.468,870.564,276.6,874.913,279.475Z" transform="translate(-505.219 -165.234)" fill="#fff"/>
  <path id="Path_62" data-name="Path 62" d="M880.333,269.432H870.29a.335.335,0,1,1,0-.67h10.043a.335.335,0,0,1,0,.67Z" transform="translate(-508.966 -165.234)" fill="#fff"/>
  <path id="Path_63" data-name="Path 63" d="M886.41,282.844a.334.334,0,0,1-.31-.459l2.678-6.7a.335.335,0,0,1,.621.248l-2.678,6.7A.334.334,0,0,1,886.41,282.844Z" transform="translate(-517.051 -168.604)" fill="#fff"/>
  <ellipse id="Ellipse_15" data-name="Ellipse 15" cx="2.456" cy="3.439" rx="2.456" ry="3.439" transform="translate(369.587 101.276)" fill="#ffb8b8"/>
  <path id="Path_64" data-name="Path 64" d="M399.191,207.133l26.16,5.987L436.4,192.273l-22.369-8.733Z" transform="translate(-200.226 -92.06)" fill="#2f2e41"/>
  <path id="Path_65" data-name="Path 65" d="M553.02,511.436s-8.409,19.271-8.409,24.877c0,0,3.329,15.242,2.277,19.446l-3.679,7.884-7.708-3.154-2.1-21.023.35-33.637Z" transform="translate(-340.156 -284.142)" fill="#ffb9b9"/>
  <path id="Path_66" data-name="Path 66" d="M581.355,282.623s.7,11.563-.7,15.066,5.256,10.161,5.256,10.161l10.511-13.665s-7.008-7.008-5.256-14.716Z" transform="translate(-363.761 -170.605)" fill="#ffb9b9"/>
  <path id="Path_67" data-name="Path 67" d="M533.668,445.9s-10.161,18.921-.35,17.519,6.482-18.045,6.482-18.045" transform="translate(-337.973 -253.819)" fill="#e6e6e6"/>
  <path id="Path_68" data-name="Path 68" d="M398.763,330.728l3.328-33.111-.175-20.147-7.709,1.4v18.57l-1.576,33.812" transform="translate(-196.936 -139.173)" fill="#ffb9b9"/>
  <path id="Path_69" data-name="Path 69" d="M525.276,604.58l15.066-5.957,1.752,29.782s3.153,9.11,2.1,12.614c0,0,.7,5.956-1.051,6.307s-6.657,1.051-7.008.7-.35-1.4-.35-1.4-3.5,2.453-3.854,5.256c0,0-14.716,4.555-15.066.35s7.358-7.708,7.358-7.708l5.956-9.11Z" transform="translate(-331.858 -330.685)" fill="#2f2e41"/>
  <path id="Path_70" data-name="Path 70" d="M615.937,511.436s-8.409,19.271-8.409,24.877c0,0,3.329,15.242,2.277,19.446l-3.679,7.884-7.708-3.154-2.1-21.023.35-33.637Z" transform="translate(-371.714 -284.142)" fill="#ffb9b9"/>
  <path id="Path_71" data-name="Path 71" d="M589.247,604.58l15.066-5.957,1.752,29.782s3.154,9.11,2.1,12.614c0,0,.7,5.956-1.051,6.307s-6.657,1.051-7.008.7-.35-1.4-.35-1.4-3.5,2.453-3.854,5.256c0,0-14.716,4.555-15.066.35s7.358-7.708,7.358-7.708l5.956-9.11Z" transform="translate(-363.945 -330.685)" fill="#2f2e41"/>
  <path id="Path_72" data-name="Path 72" d="M589.216,258.346a11.213,11.213,0,0,1-22.153,2.453,10.864,10.864,0,0,1-.274-2.453,11.214,11.214,0,1,1,22.427,0Z" transform="translate(-356.904 -154.385)" fill="#ffb9b9"/>
  <path id="Path_73" data-name="Path 73" d="M565.3,310.071l8.7-4.518,3.913,3.117s9.46-.35,12.964,3.854,5.431,14.891,5.431,14.891-11.562-2.453-10.161,7.358l-2.1-5.606-1.927,4.73-23.476,8.059-10.511-17.869s-7.008-2.1-9.46,2.8c0,0,.526-17.694,7.358-18.22,4.595-.353,8.059-.35,8.059-.35l3.854-.7,2.468-.876Z" transform="translate(-342.8 -183.688)" fill="#575a89"/>
  <path id="Path_74" data-name="Path 74" d="M575.96,388.053s18.4,55.185,13.139,62.893c0,0-19.621,9.811-58.864-3.5L546.177,385.6A54.193,54.193,0,0,1,575.96,388.053Z" transform="translate(-338.569 -223.303)" fill="#2f2e41"/>
  <path id="Path_75" data-name="Path 75" d="M589.711,349.812l5.177-17.791c-6.21-6.754-.85-21.73-.85-21.73l-7.493-1.606s-7.52,20.279-15.229,17.826-3.5-18.22-3.5-18.22l-7.008.7-3.153,12.263,2.277,26.1A97.91,97.91,0,0,1,589.711,349.812Z" transform="translate(-352.32 -185.061)" fill="#575a89"/>
  <path id="Path_76" data-name="Path 76" d="M488.393,330.728l2.453-33.286.7-19.971-7.708,1.4v18.57l-1.577,33.812" transform="translate(-241.892 -139.173)" fill="#ffb9b9"/>
  <path id="Path_77" data-name="Path 77" d="M623.3,445.9s-10.161,18.921-.35,17.519,6.482-18.045,6.482-18.045" transform="translate(-382.93 -253.819)" fill="#fff"/>
  <path id="Path_78" data-name="Path 78" d="M642.578,331.371s-1.245-17.994-11.66-17.932v20.809S638.724,329.619,642.578,331.371Z" transform="translate(-389.069 -187.643)" fill="#575a89"/>
  <path id="Path_79" data-name="Path 79" d="M596.193,270.257a.286.286,0,0,1-.179-.509l5.718-4.575a.286.286,0,0,1,.357.447l-5.718,4.575A.287.287,0,0,1,596.193,270.257Z" transform="translate(-371.509 -163.403)" fill="#fff"/>
  <path id="Path_80" data-name="Path 80" d="M581.294,280.852c-.126.154-.252.309-.383.452a11.214,11.214,0,0,1-15.571-7.754l5.418-1,10.536,1C578.881,276.489,579.172,277.507,581.294,280.852Z" transform="translate(-356.177 -167.136)" fill="#fff"/>
  <path id="Path_81" data-name="Path 81" d="M560.654,236.566s-5.8,1.09-7.135,8.318a13.268,13.268,0,0,0-.114,3.69c.134,1.391-.06,4.33-3.081,7.79a75.746,75.746,0,0,0-5.5,7.064h0l6.055,1.612,2.706-10.033a51.324,51.324,0,0,1,6-13.784l.056-.089s2.011,5.374,7.4,6.111l-1.662-2.188s6.3,3.643,9.872,4.756a2.346,2.346,0,0,1,.757,4.079l-.077.06c-2.626,1.995-7.983,6.754-5.867,11.357s-.352,5.443-.352,5.443l4.551-1.731,2.083-.892-.21,1.54,10.169.213s2.748-.017-2.133-7.352c0,0-1.178-2.75-.211-4.852a11.16,11.16,0,0,0,1.127-5.114C584.778,245.168,581.663,230.124,560.654,236.566Z" transform="translate(-345.886 -148.3)" fill="#2f2e41"/>
  <path id="Path_82" data-name="Path 82" d="M251.137,581.484s0,47.58-10.92,60.06c0,0-2.34,6.24-3.12,8.58a32.8,32.8,0,0,1-1.56,3.9v3.12s-21.06-2.34-23.4-7.8l3.9-4.68s.78-.78,0-3.12a1.6,1.6,0,0,1,1.56-2.34l5.46-12.48-.78-51.48,3.9-70.98,33.54-1.56Z" transform="translate(-179.018 -282.574)" fill="#2f2e41"/>
  <path id="Path_83" data-name="Path 83" d="M203.355,800.034s5.46,16.38,0,17.16-53.04,1.56-52.26-4.68,16.38-5.46,16.38-5.46l16.38-10.14Z" transform="translate(-148.395 -430.144)" fill="#2f2e41"/>
  <path id="Path_84" data-name="Path 84" d="M296.466,505.833a35.393,35.393,0,0,1-4.68,21.06c-6.24,10.92-2.34,47.58-2.34,47.58l55.38,48.36s-10.92,18.72-14.82,17.94-65.52-50.7-65.52-50.7l-24.18-81.12Z" transform="translate(-193.147 -284.144)" fill="#2f2e41"/>
  <path id="Path_85" data-name="Path 85" d="M429.491,736.429s16.758,4.157,14.494,9.187-27.077,45.635-31.93,41.635,4.157-16.758,4.157-16.758l.2-19.264Z" transform="translate(-278.572 -399.806)" fill="#2f2e41"/>
  <path id="Path_86" data-name="Path 86" d="M291.835,196.7a17.947,17.947,0,0,1-21.411,17.6,17.407,17.407,0,0,1-4.61-1.586,17.929,17.929,0,0,1-9.339-11.722,17.672,17.672,0,0,1-.521-4.29,17.941,17.941,0,0,1,35.881,0Z" transform="translate(-200.995 -120.091)" fill="#a0616a"/>
  <path id="Path_87" data-name="Path 87" d="M300.544,227.453l-.793,23.086-15.1,5.964s-1.48-23.638-3.57-24.949S300.544,227.453,300.544,227.453Z" transform="translate(-213.529 -144.514)" fill="#a0616a"/>
  <path id="Path_88" data-name="Path 88" d="M254.781,271.005s21.06-21.06,26.52-20.28,5.46,3.12,5.46,4.68-1.56,2.34,0,3.12,3.12,0,3.12,2.34,14.04,25.74,9.36,51.48-10.14,38.22-7.8,52.26.78,17.16.78,17.16-58.5,4.68-59.28-.78,2.34-2.34-1.56-6.24-2.34-3.9-2.34-6.24S246.2,271.005,254.781,271.005Z" transform="translate(-187.342 -156.177)" fill="#575a89"/>
  <path id="Path_89" data-name="Path 89" d="M283.929,497.2s-9.36,22.62-16.38,17.16,3.12-24.18,3.12-24.18Z" transform="translate(-205.569 -276.295)" fill="#fff"/>
  <path id="Path_90" data-name="Path 90" d="M308.255,294.422s18.326,2.1,11.5,35.759-33.343,72.661-33.343,72.661l-17.94-8.58,23.4-46.02-5.46-28.86S283.3,292.082,308.255,294.422Z" transform="translate(-207.276 -178.033)" fill="#575a89"/>
  <path id="Path_91" data-name="Path 91" d="M144.614,342.279l-25.74,42.9,2.34,2.34Z" transform="translate(-59.625 -171.68)" opacity="0.2"/>
  <path id="Path_92" data-name="Path 92" d="M177.078,382.389l-20.645,33.828h7.02Z" transform="translate(-78.464 -191.798)" opacity="0.2"/>
  <rect id="Rectangle_21" data-name="Rectangle 21" width="1.11" height="57.598" transform="translate(50.943 252.462) rotate(-20.877)" opacity="0.2"/>
  <circle id="Ellipse_16" data-name="Ellipse 16" cx="1.11" cy="1.11" r="1.11" transform="translate(66.44 116.892)" fill="#d0cde1"/>
  <line id="Line_12" data-name="Line 12" x1="9.432" y2="30.514" transform="translate(58.118 118.002)" fill="none"/>
  <path id="Path_93" data-name="Path 93" d="M261.735,328.312a.554.554,0,0,0,.53-.391l9.432-30.514a.555.555,0,1,0-1.06-.328l-9.432,30.515a.555.555,0,0,0,.53.718Z" transform="translate(-203.617 -179.241)" fill="#d0cde1"/>
  <path id="Path_94" data-name="Path 94" d="M269.818,230.332l-4.483,4.265c-4.617-2.324-9.077-8.585-10.336-13.716l5.882-2.465C261.266,223.65,264.981,227.129,269.818,230.332Z" transform="translate(-200.517 -139.982)" fill="#fff"/>
  <path id="Path_95" data-name="Path 95" d="M276.106,220.65a.377.377,0,0,1-.053,0l-10.426-1.489a.372.372,0,0,1,.1-.737l10.426,1.489a.372.372,0,0,1-.052.741Z" transform="translate(-205.687 -139.982)" fill="#fff"/>
  <path id="Path_96" data-name="Path 96" d="M283.61,235.385a.372.372,0,0,1-.324-.555l3.455-6.15a.372.372,0,0,1,.649.365l-3.455,6.15a.371.371,0,0,1-.324.19Z" transform="translate(-214.68 -145.035)" fill="#fff"/>
  <path id="Path_97" data-name="Path 97" d="M282.25,199.073a25.82,25.82,0,0,0-4.711-1.4,12.326,12.326,0,0,1-8.189-13.819,7.052,7.052,0,0,0,.3-2.278c-.21-1.7-1.954-2.8-3.626-3.194s-3.451-.334-5.049-.962a7.647,7.647,0,0,1-4.462-6.132,12.666,12.666,0,0,1,1.692-7.634l.6,1.738a6.446,6.446,0,0,0,1.973-2.951,4.065,4.065,0,0,1,3.1,2.491c.969.572,1.109-1.776,2.18-2.122a1.923,1.923,0,0,1,1.337.33c2.158,1.006,4.664.146,6.979-.412a26.271,26.271,0,0,1,12.2-.014,14.6,14.6,0,0,1,7.207,3.708,17.294,17.294,0,0,1,3.372,5.794c2.045,5.146,3.4,10.714,2.72,16.209a22.944,22.944,0,0,1-5.407,12.157c-1.544,1.779-6.581,7.984-9.342,6.926C281.646,206.175,286.339,201.235,282.25,199.073Z" transform="translate(-201.23 -111.685)" fill="#2f2e41"/>
</svg>
