<svg id="undraw_online_dating_yruf" xmlns="http://www.w3.org/2000/svg" width="436.23" height="372.673" viewBox="0 0 436.23 372.673">
  <path id="Path_4" data-name="Path 4" d="M601.408,167.662h-2.016V112.426a31.969,31.969,0,0,0-31.969-31.969H450.4a31.969,31.969,0,0,0-31.969,31.969V415.457A31.969,31.969,0,0,0,450.4,447.427H567.422a31.969,31.969,0,0,0,31.969-31.969V206.981h2.016Z" transform="translate(-291.867 -80.456)" fill="#3f3d56"/>
  <path id="Path_5" data-name="Path 5" d="M577.385,96.951H562.109a11.343,11.343,0,0,1-10.5,15.626H484.565a11.343,11.343,0,0,1-10.5-15.626H459.8a23.874,23.874,0,0,0-23.874,23.874V423.413A23.874,23.874,0,0,0,459.8,447.287H577.385a23.874,23.874,0,0,0,23.874-23.874h0V120.826a23.874,23.874,0,0,0-23.874-23.874Z" transform="translate(-300.54 -88.634)" fill="#fff"/>
  <path id="Path_6" data-name="Path 6" d="M976.617,375.741c-2.472,7.318-6.262,13.986-13.986,13.986s-13.551-6.274-13.986-13.986c-.556-9.854,6.083-14.026,13.986-13.986C971.966,361.8,979.55,367.056,976.617,375.741Z" transform="translate(-554.715 -219.915)" fill="#2f2e41"/>
  <rect id="Rectangle_1" data-name="Rectangle 1" width="27.603" height="34.964" transform="translate(393.93 155.512)" fill="#2f2e41"/>
  <path id="Path_7" data-name="Path 7" d="M1002.976,440.527h2.348a20.9,20.9,0,0,1,3.13,17.217c-2.609,9.913-.522,11.739-.522,11.739s3.4,10.735-.256,26.909,3.386,20.569,3.386,20.569l-6.522-13.043-3.652-34.435Z" transform="translate(-580.632 -258.967)" fill="#e6e6e6"/>
  <path id="Path_8" data-name="Path 8" d="M974.624,415.394s-2.087,8.348-1.043,8.348,4.7,4.435,4.7,4.435l2.348,8.609-1.826,6.261-6.261-1.3-7.826-8.609-2.348-2.348-2.087-7.565s2.609-3.13.783-5.739S974.624,415.394,974.624,415.394Z" transform="translate(-560.497 -246.486)" fill="#fbbebe"/>
  <path id="Path_9" data-name="Path 9" d="M846.411,442.581l-5.739-9.391s-6.2-13.707-10.63-8.751,6.717,15.012,6.717,15.012l5.739,7.565Z" transform="translate(-495.415 -250.456)" fill="#fbbebe"/>
  <path id="Path_10" data-name="Path 10" d="M982.794,617l-4.174,30.522s.522,2.348-4.7,10.957-19.3,27.391-19.3,27.391l-4.174-7.826s4.957-24.783,13.565-30l-1.043-37.565Z" transform="translate(-555.624 -343.224)" fill="#fbbebe"/>
  <path id="Path_11" data-name="Path 11" d="M938.142,738.268l5.739,10.956s-4.7,6.593-2.87,7.9,4.174,13.043-.782,11.739-8.87-6.522-8.87-7.3,2.87-5.027,1.3-7.636a12.659,12.659,0,0,0-2.609-3.391l-3.123,4.153-1.3-.782,5.732-8.588a6.875,6.875,0,0,1,3.913-3.391Z" transform="translate(-543.32 -406.577)" fill="#2f2e41"/>
  <path id="Path_12" data-name="Path 12" d="M955.078,612.671s2.026,28.852-2.409,36.417v37.565l-6,.783s-12.117-19.888-7.682-39.453-4.579-37.5-4.579-37.5Z" transform="translate(-547.673 -343.224)" fill="#fbbebe"/>
  <circle id="Ellipse_1" data-name="Ellipse 1" cx="10.957" cy="10.957" r="10.957" transform="translate(394.953 153.386)" fill="#fbbebe"/>
  <path id="Path_13" data-name="Path 13" d="M923.095,445.852l-10.956-13.826-6.261-4.174-2.609,3.391-7.3,2.087s-4.7,1.043-9.652,6.783-13.826,9.13-13.826,9.13-15.913-5.217-15.913-6.261-7.565,7.043-5.739,10.174,10.53,12.694,23.312,10.868,17.645-3.564,17.645-3.564,2.348,12,9.13,14.348,28.957,3.913,28.957,3.913l4.7-15.652s5.218-6.783-1.826-16.7a65.407,65.407,0,0,0-.892-9.233,6.1,6.1,0,0,0-1.195-3.028c-1.826-1.565-11.478-4.174-11.478-4.174s1.565,5.217,2.348,5.478S924.138,444.548,923.095,445.852Z" transform="translate(-506.099 -252.684)" fill="#e6e6e6"/>
  <path id="Path_14" data-name="Path 14" d="M922.2,598.813c13.137-.913,20.786,1.239,24.2,2.88.634.287,3,.889,3,.988,0,.783,17.167,2.75,23.689,1.184s-6.032-65.454-8.9-68.323-1.323-13.372-1.323-13.372-26.33-3.584-28.677-4.106a1.475,1.475,0,0,0-1.842.665,4.512,4.512,0,0,1-1.784,1.8c-5.538,3.19-9.984,25.25-13.33,37.445C913.573,571.281,922.2,598.813,922.2,598.813Z" transform="translate(-538.707 -297.373)" fill="#2f2e41"/>
  <path id="Path_15" data-name="Path 15" d="M963.9,756.892s3.069,11.209,4.957,20.087c0,0,1.3,3.081,6,5.429s-.8,6.247-5.231,5.986-8.609.261-9.13-1.043-2.073-6.98-2.073-6.98l-.856,7.852-2.609.261.856-10.2s-2.087-3.913.783-10.435l-.724-10.011S963.117,759.5,963.9,756.892Z" transform="translate(-557.86 -415.811)" fill="#2f2e41"/>
  <path id="Path_16" data-name="Path 16" d="M972.827,607.906a8.644,8.644,0,0,1,1.779,1.08c.138-2.465.936-17.374-.021-17.134Z" transform="translate(-566.72 -333.988)" opacity="0.1" style="isolation: isolate"/>
  <path id="Path_17" data-name="Path 17" d="M949.854,375.423s-.121-.675-4.867,1.1-7.59,14.912-5.217,22.624a7.067,7.067,0,0,1-1.091,6.916,11.425,11.425,0,0,0,4.051,17.745q.294.128.6.253l2.966,1.78a13.565,13.565,0,0,1-1.889-11.339,32.629,32.629,0,0,0,.589-16.7c-.217-.932-.464-1.893-.744-2.873-2.373-8.3-1.219-7.346,7.086-15.651a52.792,52.792,0,0,0,8.9,5.339c4.152,1.78,7.712,3.559,4.746,9.491s-10.084,11.271-5.339,18.982,5.339,4.746,4.746,7.712h0l-.593,2.966,3.559-3.559-2.373,4.746s7.712,0,10.084-5.932l1.186,1.186s4.746-8.3-4.152-16.016c0,0-2.966-1.78,1.186-7.712s.963-18.686-4.376-21.059S949.854,375.423,949.854,375.423Z" transform="translate(-548.48 -226.168)" fill="#2f2e41"/>
  <rect id="Rectangle_2" data-name="Rectangle 2" width="11.291" height="8.782" transform="translate(31.912 175.29) rotate(-87.779)" fill="#355836"/>
  <path id="Path_18" data-name="Path 18" d="M309.8,481.3s12.152-5.806,11.958-.792-12.249,8.313-12.249,8.313Z" transform="translate(-237.87 -277.775)" fill="#ffb9b9"/>
  <path id="Path_19" data-name="Path 19" d="M247.293,561.624s5.733,14.032,7.851,24.158,5.344,24.061,1.195,33.944-15.947,38.929-16.069,42.063,1.011,6.317-1.5,6.219-16.151-4.393-16.7-6.3,4.655-6.724,4.655-6.724l12.862-40.3-13.42-26.257-9.68,39.172-1.9,48.889s-9.3-2.872-10.655-.413c0,0-4.169-5.811-4.7-8.343s1.969-50.77,1.969-50.77-8.541-54.944-1.646-54.676S233.46,546.022,247.293,561.624Z" transform="translate(-182.027 -315.676)" fill="#2f2e41"/>
  <path id="Path_20" data-name="Path 20" d="M261.068,769.983s6.36,14.057,6.962,14.708,4.747,7.089,1.613,6.968-10.534-3.547-15.98-8.78-12.628-14.3-11.977-14.9a36.989,36.989,0,0,1,5.112-2.313Z" transform="translate(-204.224 -420.159)" fill="#2f2e41"/>
  <path id="Path_21" data-name="Path 21" d="M217.981,788.587s.384,6.292,1.54,8.848,1.011,6.317-2.123,6.195-11.234-.112-11.234-.112-.481-3.785.17-4.387,3.426-8.979,2.245-10.908S217.981,788.587,217.981,788.587Z" transform="translate(-186.55 -430.96)" fill="#2f2e41"/>
  <path id="Path_22" data-name="Path 22" d="M210.893,384.75s-6.681,10.412-9.285,12.822,4.723,7.716,4.723,7.716l13.114,1.764s-.165-11.933.51-13.163S210.893,384.75,210.893,384.75Z" transform="translate(-184.098 -231.315)" fill="#ffb9b9"/>
  <path id="Path_23" data-name="Path 23" d="M218.074,408.95s-2.7,4.917-5.209,4.82-15.475-5.622-16.029-7.527-4.3,13.644-4.3,13.644l31.732,55.843,7.74-5.349-3.75-32.787-3.08-17.7Z" transform="translate(-179.88 -241.89)" fill="#fff"/>
  <path id="Path_24" data-name="Path 24" d="M185.92,455.218a17.56,17.56,0,0,1,1.947,8.236c0,.125-.01.251-.021.376-.3,5.8-2.437,12.51-3.2,17.389-.556,3.5-.4,6.055,1.65,6.655,4.966,1.448-.724,2.483,18.488,8.877s22.564.875,22.613-.379-2.721-10.777-2.07-11.379,9.11,7.886,11.666,6.73.292-7.521.292-7.521-5.757-13.406-5.636-16.539-8.721-17.915-8.721-17.915L216.909,410.6s-2.313-5.112-5.422-5.86a7.7,7.7,0,0,0-5.69,1.035l5.2,11.5,5.49,20.3-.918,7.5s-6.384-13.43-10.577-18.614S191.862,409,191.862,409s-2.087-7.042-.512-9.147-6.572-2.427-10.047,6.227c-1.841,4.586-4.831,11.426-6.7,17.794-1.669,5.641-2.457,10.915-.8,13.93C176.323,442.4,182.68,448.457,185.92,455.218Z" transform="translate(-170.135 -238.181)" fill="#3f3d56"/>
  <path id="Path_25" data-name="Path 25" d="M173.8,461.113c2.527,4.605,8.883,10.658,12.124,17.419.846-3.049,1.879-6.2,1.879-6.2s3.96-21.189-7.754-26.665a7.841,7.841,0,0,0-5.445,1.521C172.931,452.824,172.143,458.1,173.8,461.113Z" transform="translate(-170.135 -261.495)" opacity="0.1" style="isolation: isolate"/>
  <path id="Path_26" data-name="Path 26" d="M265.966,473.692l9.931,2.9,13.789.535,1.419,11.982-22.662,1.632S262.784,474.824,265.966,473.692Z" transform="translate(-215.801 -275.409)" fill="#3f3d56"/>
  <path id="Path_27" data-name="Path 27" d="M230.331,553.589s13.286,2.2,10.254,6.2-14.8-.205-14.8-.205Z" transform="translate(-196.361 -315.019)" fill="#ffb9b9"/>
  <path id="Path_28" data-name="Path 28" d="M199.408,527.964c-.3,5.8-2.437,12.51-3.2,17.389,4.232,4.006,8.257,7.539,9.774,7.6,3.134.122,8.173-.311,10.029.389s2.945-11.185,2.945-11.185-1.108-3.809-6.049-5.884A68.828,68.828,0,0,1,199.408,527.964Z" transform="translate(-181.696 -302.316)" opacity="0.1" style="isolation: isolate"/>
  <path id="Path_29" data-name="Path 29" d="M177.489,438.2s-10.607-1.667-10.034,15.932-1.118,28.832,3.148,32.136,18.123,18.279,21.257,18.4,8.173-.311,10.029.389,2.945-11.185,2.945-11.185-1.108-3.809-6.049-5.884S182.2,478.555,182.3,476.048s2.945-11.185,2.945-11.185S189.2,443.674,177.489,438.2Z" transform="translate(-167.432 -257.792)" fill="#3f3d56"/>
  <circle id="Ellipse_2" data-name="Ellipse 2" cx="13.8" cy="13.8" r="13.8" transform="translate(22.349 141.254)" fill="#ffb9b9"/>
  <path id="Path_30" data-name="Path 30" d="M232.917,345.993a2.665,2.665,0,0,0,1.16.582.828.828,0,0,0,.959-.665,3.441,3.441,0,0,0,1.317,1.689c.645.336,1.641.054,1.734-.667a3.042,3.042,0,0,0,.7,1.478,1.049,1.049,0,0,0,1.474.049,37.9,37.9,0,0,0-.2,4.7,5.978,5.978,0,0,1-1.689,4.255c-1.725,1.5-4.32,1.131-6.589.846a2,2,0,0,0-1.033.057c-.85.362-.811,1.545-.823,2.469a6.859,6.859,0,0,1-6.006,6.513,3.438,3.438,0,0,1-2.555-.624c-.644-.546-.974-1.436-1.712-1.847-1.2-.667-2.658.306-3.536,1.363s-1.744,2.357-3.1,2.55c-1.8.256-3.169-1.578-3.842-3.266a19.039,19.039,0,0,1,.378-14.794C213.312,342.49,226.145,341.195,232.917,345.993Z" transform="translate(-187.477 -210.719)" fill="#2f2e41"/>
  <path id="Path_31" data-name="Path 31" d="M335.964,463.459c4.52-5.09,12.094-4.71,17.942-2.428,7.238,2.824,12.475,9.106,18.319,13.955a39.822,39.822,0,0,0,10.014,6.288,35.479,35.479,0,0,0,11.385,2.645,34.367,34.367,0,0,0,21.526-5.8,35.681,35.681,0,0,0,13.129-16.474c.316-.816.6-1.645.849-2.483a.757.757,0,0,0-1.459-.4,33.8,33.8,0,0,1-11.913,17.069,32.962,32.962,0,0,1-21,6.631,34.232,34.232,0,0,1-11.352-2.336,37.1,37.1,0,0,1-10.029-6.141c-5.868-4.855-11.085-11.029-18.228-14.068-5.793-2.464-13.265-3.215-18.536.866a12.637,12.637,0,0,0-1.718,1.607c-.644.726.422,1.8,1.07,1.07Z" transform="translate(-250.356 -267.578)" fill="#2f2e41"/>
  <path id="Path_32" data-name="Path 32" d="M745.509,361.674c-.948-6.278-6.468-10.4-12.178-12.223-7.576-2.424-15.443-.587-23.072.582a46.752,46.752,0,0,1-12.419.567,33.284,33.284,0,0,1-28.829-39.718c.188-.931.419-1.851.685-2.763a.757.757,0,0,0-1.459-.4,35.353,35.353,0,0,0,.923,22.267,34.4,34.4,0,0,0,13.768,16.843,35.532,35.532,0,0,0,21.409,5.406c4.379-.288,8.688-1.168,13.022-1.811A39.361,39.361,0,0,1,729.081,350c5.775.9,12.361,3.956,14.429,9.86a12.166,12.166,0,0,1,.54,2.211C744.195,363.035,745.653,362.628,745.509,361.674Z" transform="translate(-415.035 -192.862)" fill="#2f2e41"/>
  <path id="Path_33" data-name="Path 33" d="M571.944,605.294a16.639,16.639,0,0,0-23.531,23.531l23.531,23.531,23.531-23.531a16.639,16.639,0,1,0-23.531-23.531Z" transform="translate(-353.894 -338.237)" fill="#355836"/>
  <rect id="Rectangle_3" data-name="Rectangle 3" width="144.963" height="28.621" transform="translate(199.469 76.372)" fill="#e6e6e6"/>
  <path id="Path_34" data-name="Path 34" d="M569.15,260.488H707.932v-22.44H569.15Z" transform="translate(-366.59 -158.585)" fill="#fff"/>
  <circle id="Ellipse_3" data-name="Ellipse 3" cx="8.549" cy="8.549" r="8.549" transform="translate(206.16 81.948)" fill="#355836"/>
  <rect id="Rectangle_4" data-name="Rectangle 4" width="84.376" height="1.859" transform="translate(235.152 87.152)" fill="#e6e6e6"/>
  <rect id="Rectangle_5" data-name="Rectangle 5" width="84.376" height="1.859" transform="translate(235.152 91.984)" fill="#e6e6e6"/>
  <rect id="Rectangle_6" data-name="Rectangle 6" width="144.963" height="28.621" transform="translate(107.699 150.999)" fill="#e6e6e6"/>
  <path id="Path_35" data-name="Path 35" d="M387.15,408.488H525.932v-22.44H387.15Z" transform="translate(-276.361 -231.958)" fill="#fff"/>
  <circle id="Ellipse_4" data-name="Ellipse 4" cx="8.549" cy="8.549" r="8.549" transform="translate(114.389 156.575)" fill="#355836"/>
  <rect id="Rectangle_7" data-name="Rectangle 7" width="84.376" height="1.859" transform="translate(143.382 161.778)" fill="#e6e6e6"/>
  <rect id="Rectangle_8" data-name="Rectangle 8" width="84.376" height="1.859" transform="translate(143.382 166.61)" fill="#e6e6e6"/>
</svg>
