<svg xmlns="http://www.w3.org/2000/svg" width="228.003" height="46.737" viewBox="0 0 228.003 46.737">
  <g id="Group_4" data-name="Group 4" transform="translate(-43.997 -34)">
    <g id="Group_1" data-name="Group 1" transform="translate(-1066.002 -191.233)">
      <path id="Path_2" data-name="Path 2" d="M-9.14,3.182c1.035,0,1.117-10.7,3.452-12.58S-1.075-5.333.806-5.241c1.648.08,6.87-.926,6.87,1.986s-10.5,9.642-8.688,9.943c5.845.968,14.386-1.025,14.306,2.631s-5.619,2.852-5.619,5.687c0,5.213,1.287,6.68-2.054,6.322S-1.548,13.2-5.687,13.574-3.551,30.088-9.14,29.055s-3.645-3.789-6.027-5.322-6.426,1.825-8.918-2.4,8.918-9.016,8.918-10.82c0-4.133-8.093-.33-10.828-3.821s.689-3.645,3.335-7.2-1.589-5.972,3.176-7.139S-12.575,3.182-9.14,3.182Z" transform="translate(1138.661 239.409)" fill="#b1d5b9"/>
      <g id="Path_1" data-name="Path 1" transform="translate(1137 235)" fill="none">
        <path d="M-8.7,3.766c1.06,0,1.145-11.178,3.538-13.147S-.434-5.133,1.494-5.037c1.689.084,7.04-.968,7.04,2.075S-2.229,7.115-.369,7.43c5.989,1.012,14.742-1.071,14.66,2.75s-5.758,2.98-5.758,5.943c0,5.448,1.319,6.982-2.1,6.607s-7.348-8.5-11.59-8.1S-2.972,31.884-8.7,30.8s-3.735-3.96-6.176-5.561-6.585,1.907-9.138-2.513,9.138-9.423,9.138-11.307c0-4.32-8.293-.345-11.1-3.993s.706-3.809,3.417-7.523-1.628-6.241,3.255-7.46S-12.219,3.766-8.7,3.766Z" stroke="none"/>
        <path d="M -4.049982070922852 -7.590187072753906 C -4.226324081420898 -7.268365859985352 -4.518569946289062 -6.583152770996094 -4.834428787231445 -5.206628799438477 C -5.185019493103027 -3.678737640380859 -5.441618919372559 -1.865447998046875 -5.66801929473877 -0.2656173706054688 C -5.845748901367188 0.9903316497802734 -5.999238967895508 2.07501220703125 -6.178648948669434 2.921062469482422 C -6.295168876647949 3.470592498779297 -6.415069103240967 3.880681991577148 -6.555989265441895 4.21162223815918 C -7.153209209442139 5.614272117614746 -8.252959251403809 5.765702247619629 -8.698068618774414 5.765702247619629 C -11.46765899658203 5.765702247619629 -13.04923915863037 2.764142990112305 -14.72368907928467 -0.4136581420898438 C -15.48392868041992 -1.856468200683594 -16.27005958557129 -3.348388671875 -17.08786964416504 -4.403947830200195 C -17.69497871398926 -5.187557220458984 -18.25916862487793 -5.636978149414062 -18.63577842712402 -5.636978149414062 C -18.69019889831543 -5.636978149414062 -18.75001907348633 -5.628927230834961 -18.81355857849121 -5.613058090209961 C -19.35939788818359 -5.476715087890625 -19.64202499389648 -5.35102653503418 -19.77594375610352 -5.277135848999023 C -19.76970672607422 -5.094449996948242 -19.7320556640625 -4.804130554199219 -19.70270919799805 -4.577796936035156 C -19.53910827636719 -3.316047668457031 -19.26527976989746 -1.204257965087891 -20.93744850158691 1.086271286010742 C -21.94304847717285 2.46373176574707 -23.01101875305176 3.389131546020508 -23.86913871765137 4.132711410522461 C -24.27967071533203 4.488447189331055 -24.83046340942383 4.96571159362793 -24.98817825317383 5.207711219787598 C -24.95242691040039 5.324499130249023 -24.82494354248047 5.637002944946289 -24.38394927978516 6.210902214050293 C -23.69949913024902 7.101622581481934 -21.93146896362305 7.174101829528809 -19.86283874511719 7.174101829528809 L -19.67996978759766 7.174041748046875 L -19.49702835083008 7.173972129821777 C -17.97462844848633 7.173972129821777 -16.72195816040039 7.203922271728516 -15.61311912536621 7.580681800842285 C -13.87229919433594 8.172172546386719 -12.87387943267822 9.57247257232666 -12.87387943267822 11.42251205444336 C -12.87387943267822 13.11321258544922 -14.40884876251221 14.22110176086426 -16.9518985748291 16.05660247802734 C -18.51371955871582 17.18387222290039 -20.28392028808594 18.46155166625977 -21.41178894042969 19.72365188598633 C -22.02285957336426 20.40745162963867 -22.24846839904785 20.87154197692871 -22.33012962341309 21.14045143127441 C -22.41420936584473 21.41733169555664 -22.37739944458008 21.56114196777344 -22.28006935119629 21.72966194152832 C -21.62907028198242 22.85671234130859 -21.00177955627441 23.07037162780762 -20.07195854187012 23.07037162780762 C -19.59980010986328 23.07037162780762 -19.08266830444336 23.00686264038086 -18.53518867492676 22.93962287902832 C -17.93096923828125 22.86541175842285 -17.30617904663086 22.78867149353027 -16.66537857055664 22.78867149353027 C -15.52335929870605 22.78867149353027 -14.5784387588501 23.04443168640137 -13.77662944793701 23.57057189941406 C -12.33921909332275 24.51380157470703 -11.85778903961182 25.75562286376953 -11.50626945495605 26.66235160827637 C -11.27118873596191 27.26872253417969 -11.13466930389404 27.59793281555176 -10.83707904815674 27.87275314331055 C -10.40043067932129 28.27601432800293 -9.578777313232422 28.59660720825195 -8.394244194030762 28.82600402832031 C -8.308734893798828 28.57685852050781 -8.186603546142578 28.03414916992188 -8.175518989562988 26.95168304443359 C -8.162468910217285 25.67795181274414 -8.303929328918457 24.11122131347656 -8.440719604492188 22.59607315063477 C -8.626459121704102 20.53894233703613 -8.801889419555664 18.59589195251465 -8.669089317321777 16.98063278198242 C -8.581789016723633 15.91867256164551 -8.361919403076172 15.07945251464844 -7.996929168701172 14.41501235961914 C -7.423629283905029 13.37134170532227 -6.481409072875977 12.73885154724121 -5.343829154968262 12.63406181335449 C -5.184689521789551 12.6194019317627 -5.022628784179688 12.61197280883789 -4.862149238586426 12.61197280883789 C -1.773029327392578 12.61197280883789 0.7523908615112305 15.28003215789795 2.980520248413086 17.6340217590332 C 3.814390182495117 18.51499176025391 4.602010726928711 19.34710311889648 5.328920364379883 19.95315170288086 C 6.154630661010742 20.64158248901367 6.546171188354492 20.73088264465332 6.646520614624023 20.74185180664062 C 6.688838958740234 20.7464771270752 6.729988098144531 20.7507209777832 6.76991081237793 20.75457954406738 C 6.753578186035156 20.44852066040039 6.726123809814453 20.09560394287109 6.701591491699219 19.78022193908691 C 6.626810073852539 18.81901168823242 6.533750534057617 17.62275314331055 6.533750534057617 16.12270164489746 C 6.533750534057617 15.26151275634766 6.80072021484375 14.02019214630127 8.072540283203125 12.99718284606934 C 8.756950378417969 12.44666194915771 9.547370910644531 12.09739208221436 10.31175994873047 11.75961208343506 C 10.9337100982666 11.48477172851562 11.57684135437012 11.20058250427246 11.95044136047363 10.8788423538208 C 12.15676689147949 10.70114994049072 12.26913070678711 10.54339122772217 12.28905487060547 10.20574283599854 C 12.14717483520508 10.13013362884521 11.80451774597168 9.992204666137695 11.06965065002441 9.888452529907227 C 10.10199165344238 9.751832008361816 8.867321014404297 9.73342227935791 7.78717041015625 9.733431816101074 C 7.323751449584961 9.733431816101074 6.854530334472656 9.737212181091309 6.357751846313477 9.741222381591797 C 5.853601455688477 9.745282173156738 5.332281112670898 9.749482154846191 4.809841156005859 9.749482154846191 C 3.102581024169922 9.749482154846191 1.112650871276855 9.708142280578613 -0.7018394470214844 9.401552200317383 C -1.57892894744873 9.253312110900879 -2.268428802490234 8.65266227722168 -2.501278877258301 7.833982467651367 C -2.906208992004395 6.41030216217041 -1.795289039611816 5.303112030029297 -1.131528854370117 4.641592025756836 C -0.5074987411499023 4.019662857055664 0.3513908386230469 3.263872146606445 1.260710716247559 2.463701248168945 C 2.451940536499023 1.415462493896484 3.802120208740234 0.2273712158203125 4.865821838378906 -0.8708686828613281 C 6.00799560546875 -2.050132751464844 6.375167846679688 -2.66929817199707 6.490970611572266 -2.922100067138672 C 6.276073455810547 -3.008861541748047 5.75800895690918 -3.147113800048828 4.638740539550781 -3.147077560424805 C 4.070371627807617 -3.147058486938477 3.479619979858398 -3.113008499145508 2.95842170715332 -3.082967758178711 C 2.508041381835938 -3.056997299194336 2.082630157470703 -3.032478332519531 1.718379974365234 -3.032478332519531 C 1.601041793823242 -3.032478332519531 1.495000839233398 -3.034917831420898 1.394041061401367 -3.039937973022461 C -0.2772693634033203 -3.123207092285156 -1.446659088134766 -4.562677383422852 -2.577539443969727 -5.954767227172852 C -2.960489273071289 -6.426168441772461 -3.356478691101074 -6.913618087768555 -3.720759391784668 -7.28333854675293 C -3.852838516235352 -7.417390823364258 -3.962066650390625 -7.51679801940918 -4.049982070922852 -7.590187072753906 M -4.184338569641113 -9.76689338684082 C -2.137895584106445 -9.7672119140625 -0.1709737777709961 -5.120384216308594 1.493560791015625 -5.037458419799805 C 1.562528610229492 -5.034023284912109 1.6378173828125 -5.032480239868164 1.718381881713867 -5.032480239868164 C 2.413972854614258 -5.032480239868164 3.519222259521484 -5.147050857543945 4.638694763183594 -5.147083282470703 C 6.56501579284668 -5.147138595581055 8.533750534057617 -4.807987213134766 8.533750534057617 -2.961967468261719 C 8.533750534057617 0.08111190795898438 -2.229338645935059 7.115032196044922 -0.3685588836669922 7.429512023925781 C 1.233720779418945 7.700247764587402 3.034137725830078 7.749478340148926 4.809841156005859 7.749478340148926 C 5.823892593383789 7.749478340148926 6.830318450927734 7.733436584472656 7.78717041015625 7.733428955078125 C 11.41808700561523 7.7333984375 14.33877372741699 7.964303016662598 14.29133033752441 10.17945194244385 C 14.20950126647949 14.00056266784668 8.533750534057617 13.15986251831055 8.533750534057617 16.12270164489746 C 8.533750534057617 21.06109237670898 9.617385864257812 22.78330230712891 7.269895553588867 22.78330230712891 C 7.027748107910156 22.78330230712891 6.749271392822266 22.76499938964844 6.42915153503418 22.73000144958496 C 3.0860595703125 22.36452674865723 -0.7349042892456055 14.61197566986084 -4.862150192260742 14.61197566986084 C -4.961468696594238 14.61197566986084 -5.060728073120117 14.61645030975342 -5.160399436950684 14.62563228607178 C -9.270206451416016 15.00422286987305 -3.361570358276367 30.85386276245117 -8.199686050415039 30.85386276245117 C -8.354809761047363 30.85386276245117 -8.520162582397461 30.83768844604492 -8.698068618774414 30.80413246154785 C -14.42463874816895 29.72402191162109 -12.4327392578125 26.84458160400391 -14.87387943267822 25.24271202087402 C -15.40236568450928 24.89591789245605 -16.01070404052734 24.78867340087891 -16.66537475585938 24.78867340087891 C -17.72647094726562 24.78867340087891 -18.90943717956543 25.07037353515625 -20.07195663452148 25.07037353515625 C -21.5052375793457 25.07037353515625 -22.90739440917969 24.6422176361084 -24.01191902160645 22.73000144958496 C -26.56502914428711 18.30989265441895 -14.87387943267822 13.30733203887939 -14.87387943267822 11.42251205444336 C -14.87387943267822 9.22547721862793 -17.01996040344238 9.173975944519043 -19.49703407287598 9.173975944519043 C -19.61831665039062 9.173975944519043 -19.74017333984375 9.174098968505859 -19.86283493041992 9.174098968505859 C -22.16061782836914 9.174098968505859 -24.66223907470703 9.131166458129883 -25.96981811523438 7.429512023925781 C -28.77282905578613 3.78175163269043 -25.26395034790039 3.620712280273438 -22.55278778076172 -0.09299850463867188 C -19.84162902832031 -3.806716918945312 -24.18108940124512 -6.333757400512695 -19.29824829101562 -7.553438186645508 C -19.07204818725586 -7.609941482543945 -18.85084533691406 -7.636981964111328 -18.63577651977539 -7.636981964111328 C -14.2082691192627 -7.636981964111328 -12.05545997619629 3.765701293945312 -8.698068618774414 3.765701293945312 C -7.637669086456299 3.765701293945312 -7.55302906036377 -7.412588119506836 -5.160399436950684 -9.381738662719727 C -4.833721160888672 -9.650596618652344 -4.507933616638184 -9.766841888427734 -4.184338569641113 -9.76689338684082 Z" stroke="none" fill="#355836"/>
      </g>
      <path id="Path_3" data-name="Path 3" d="M0,0A35.906,35.906,0,0,1,8.005,10.112c1.913,3.943,1.172,12.516,1.172,12.516" transform="translate(1131.754 249.235)" fill="none" stroke="#355836" stroke-width="2.5"/>
    </g>
    <text id="Clovr_UNC" data-name="Clovr @UNC" transform="translate(115 66)" fill="#90acea" font-size="25" font-family="Montserrat-SemiBold, Montserrat" font-weight="600"><tspan x="0" y="0" fill="#000">Clovr </tspan><tspan y="0" fill="#90acea">@UNC</tspan></text>
  </g>
</svg>
