<?xml version="1.0" encoding="utf-8"?>
<!-- Generator: Adobe Illustrator 24.2.1, SVG Export Plug-In . SVG Version: 6.00 Build 0)  -->
<svg version="1.1" id="Layer_1" xmlns="http://www.w3.org/2000/svg" xmlns:xlink="http://www.w3.org/1999/xlink" x="0px" y="0px"
	 viewBox="0 0 228 46.7" style="enable-background:new 0 0 228 46.7;" xml:space="preserve">
<style type="text/css">
	.st0{fill:#B1D5B9;}
	.st1{fill:none;}
	.st2{fill:#355836;}
	.st3{fill:none;stroke:#355836;stroke-width:2.5;}
	.st4{enable-background:new    ;}
	.st5{fill:#90ACEA;}
</style>
<g id="Group_1" transform="translate(-910.002 -191.233)">
	<path id="Path_2" class="st0" d="M929.5,208.6c1,0,1.1-10.7,3.5-12.6c2.3-1.9,4.6,4.1,6.5,4.2c1.6,0.1,6.9-0.9,6.9,2
		s-10.5,9.6-8.7,9.9c5.8,1,14.4-1,14.3,2.6s-5.6,2.9-5.6,5.7c0,5.2,1.3,6.7-2.1,6.3s-7.2-8.1-11.3-7.8c-4.1,0.4,2.1,16.5-3.5,15.5
		c-5.6-1-3.6-3.8-6-5.3s-6.4,1.8-8.9-2.4c-2.5-4.2,8.9-9,8.9-10.8c0-4.1-8.1-0.3-10.8-3.8s0.7-3.6,3.3-7.2c2.6-3.6-1.6-6,3.2-7.1
		C923.9,196.6,926.1,208.6,929.5,208.6z"/>
	<g id="Path_1" transform="translate(1137 235)">
		<path class="st1" d="M-208.7-30.2c1.1,0,1.1-11.2,3.5-13.1c2.4-2,4.7,4.2,6.7,4.3c1.7,0.1,7-1,7,2.1c0,3-10.8,10.1-8.9,10.4
			c6,1,14.7-1.1,14.7,2.8s-5.8,3-5.8,5.9c0,5.4,1.3,7-2.1,6.6s-7.3-8.5-11.6-8.1c-4.2,0.4,2.2,17.3-3.5,16.2s-3.7-4-6.2-5.6
			c-2.4-1.6-6.6,1.9-9.1-2.5c-2.6-4.4,9.1-9.4,9.1-11.3c0-4.3-8.3-0.3-11.1-4c-2.8-3.6,0.7-3.8,3.4-7.5s-1.6-6.2,3.3-7.5
			C-214.4-42.8-212.2-30.2-208.7-30.2z"/>
		<path class="st2" d="M-204-41.6c-0.2,0.3-0.5,1-0.8,2.4c-0.4,1.5-0.6,3.3-0.8,4.9c-0.2,1.3-0.3,2.3-0.5,3.2
			c-0.1,0.5-0.2,1-0.4,1.3c-0.6,1.4-1.7,1.6-2.1,1.6c-2.8,0-4.4-3-6-6.2c-0.8-1.4-1.5-2.9-2.4-4c-0.6-0.8-1.2-1.2-1.5-1.2
			c-0.1,0-0.1,0-0.2,0c-0.5,0.1-0.8,0.3-1,0.3c0,0.2,0,0.5,0.1,0.7c0.2,1.3,0.4,3.4-1.2,5.7c-1,1.4-2.1,2.3-2.9,3
			c-0.4,0.4-1,0.8-1.1,1.1c0,0.1,0.2,0.4,0.6,1c0.7,0.9,2.5,1,4.5,1l0.2,0l0.2,0c1.5,0,2.8,0,3.9,0.4c1.7,0.6,2.7,2,2.7,3.8
			c0,1.7-1.5,2.8-4.1,4.6c-1.6,1.1-3.3,2.4-4.5,3.7c-0.6,0.7-0.8,1.1-0.9,1.4c-0.1,0.3,0,0.4,0.1,0.6c0.7,1.1,1.3,1.3,2.2,1.3
			c0.5,0,1-0.1,1.5-0.1c0.6-0.1,1.2-0.2,1.9-0.2c1.1,0,2.1,0.3,2.9,0.8c1.4,0.9,1.9,2.2,2.3,3.1c0.2,0.6,0.4,0.9,0.7,1.2
			c0.4,0.4,1.3,0.7,2.4,1c0.1-0.2,0.2-0.8,0.2-1.9c0-1.3-0.1-2.8-0.3-4.4c-0.2-2.1-0.4-4-0.2-5.6c0.1-1.1,0.3-1.9,0.7-2.6
			c0.6-1,1.5-1.7,2.7-1.8c0.2,0,0.3,0,0.5,0c3.1,0,5.6,2.7,7.8,5c0.8,0.9,1.6,1.7,2.3,2.3c0.8,0.7,1.2,0.8,1.3,0.8c0,0,0.1,0,0.1,0
			c0-0.3,0-0.7-0.1-1c-0.1-1-0.2-2.2-0.2-3.7c0-0.9,0.3-2.1,1.5-3.1c0.7-0.6,1.5-0.9,2.2-1.2c0.6-0.3,1.3-0.6,1.6-0.9
			c0.2-0.2,0.3-0.3,0.3-0.7c-0.1-0.1-0.5-0.2-1.2-0.3c-1-0.1-2.2-0.2-3.3-0.2c-0.5,0-0.9,0-1.4,0c-0.5,0-1,0-1.5,0
			c-1.7,0-3.7,0-5.5-0.3c-0.9-0.1-1.6-0.7-1.8-1.6c-0.4-1.4,0.7-2.5,1.4-3.2c0.6-0.6,1.5-1.4,2.4-2.2c1.2-1,2.5-2.2,3.6-3.3
			c1.1-1.2,1.5-1.8,1.6-2.1c-0.2-0.1-0.7-0.2-1.9-0.2c-0.6,0-1.2,0-1.7,0.1c-0.5,0-0.9,0.1-1.2,0.1c-0.1,0-0.2,0-0.3,0
			c-1.7-0.1-2.8-1.5-4-2.9c-0.4-0.5-0.8-1-1.1-1.3C-203.8-41.4-204-41.5-204-41.6 M-204.2-43.8c2,0,4,4.6,5.7,4.7c0.1,0,0.1,0,0.2,0
			c0.7,0,1.8-0.1,2.9-0.1c1.9,0,3.9,0.3,3.9,2.2c0,3-10.8,10.1-8.9,10.4c1.6,0.3,3.4,0.3,5.2,0.3c1,0,2,0,3,0c3.6,0,6.6,0.2,6.5,2.4
			c-0.1,3.8-5.8,3-5.8,5.9c0,4.9,1.1,6.7-1.3,6.7c-0.2,0-0.5,0-0.8-0.1c-3.3-0.4-7.2-8.1-11.3-8.1c-0.1,0-0.2,0-0.3,0
			c-4.1,0.4,1.8,16.2-3,16.2c-0.2,0-0.3,0-0.5,0c-5.7-1.1-3.7-4-6.2-5.6c-0.5-0.3-1.1-0.5-1.8-0.5c-1.1,0-2.2,0.3-3.4,0.3
			c-1.4,0-2.8-0.4-3.9-2.3c-2.6-4.4,9.1-9.4,9.1-11.3c0-2.2-2.1-2.2-4.6-2.2c-0.1,0-0.2,0-0.4,0c-2.3,0-4.8,0-6.1-1.7
			c-2.8-3.6,0.7-3.8,3.4-7.5c2.7-3.7-1.6-6.2,3.3-7.5c0.2-0.1,0.4-0.1,0.7-0.1c4.4,0,6.6,11.4,9.9,11.4c1.1,0,1.1-11.2,3.5-13.1
			C-204.8-43.7-204.5-43.8-204.2-43.8z"/>
	</g>
	<path id="Path_3" class="st3" d="M931.8,215.2c3.3,2.9,6,6.3,8,10.1c1.9,3.9,1.2,12.5,1.2,12.5"/>
</g>
<g class="st4">
	<path d="M72.1,23.3c0-5.2,4-9,9.4-9c2.8,0,5.3,1,6.9,2.9l-2.1,2c-1.3-1.4-2.8-2-4.7-2c-3.6,0-6.2,2.5-6.2,6.1
		c0,3.6,2.6,6.1,6.2,6.1c1.8,0,3.4-0.7,4.7-2.1l2.1,2c-1.6,1.9-4.1,2.9-6.9,2.9C76.1,32.2,72.1,28.5,72.1,23.3z"/>
	<path d="M91.2,13.5h3.1V32h-3.1V13.5z"/>
	<path d="M97.4,25.3c0-4,3-6.8,7.1-6.8c4.1,0,7.1,2.8,7.1,6.8s-3,6.8-7.1,6.8C100.4,32.2,97.4,29.3,97.4,25.3z M108.4,25.3
		c0-2.5-1.7-4.2-4-4.2c-2.2,0-3.9,1.6-3.9,4.2c0,2.5,1.7,4.2,3.9,4.2C106.7,29.5,108.4,27.9,108.4,25.3z"/>
	<path d="M126.7,18.7L121,32h-3.2L112,18.7h3.2l4.1,9.9l4.3-9.9H126.7z"/>
	<path d="M136.4,18.5v3c-0.3,0-0.5-0.1-0.7-0.1c-2.4,0-3.9,1.4-3.9,4.1V32h-3.1V18.7h3v1.9C132.5,19.2,134.2,18.5,136.4,18.5z"/>
</g>
<g class="st4">
	<path class="st5" d="M168.8,25.2c0,4.3-1.8,6.9-4.8,6.9c-1.6,0-2.8-0.8-3.2-2.2c-1,1.4-2.5,2.2-4.5,2.2c-3.4,0-6-2.6-6-6.4
		c0-3.7,2.5-6.3,6-6.3c1.8,0,3.2,0.6,4.2,1.8v-1.6h2.8v8.5c0,1.3,0.6,1.7,1.3,1.7c1.3,0,2.1-1.6,2.1-4.5c0-5.3-3.9-8.9-9.6-8.9
		c-5.8,0-9.6,3.9-9.6,9.3c0,5.5,3.8,9.4,9.5,9.4c1.5,0,3.3-0.3,4.8-1.1l0.7,2c-1.5,0.8-3.7,1.2-5.5,1.2c-7.1,0-11.8-4.8-11.8-11.4
		c0-6.5,4.8-11.4,11.9-11.4C163.9,14.3,168.8,18.9,168.8,25.2z M160.5,25.8c0-2.5-1.6-3.9-3.7-3.9c-2.2,0-3.7,1.5-3.7,3.9
		c0,2.4,1.5,3.9,3.7,3.9C158.9,29.7,160.5,28.3,160.5,25.8z"/>
	<path class="st5" d="M172.1,24.4v-9.9h3.2v9.7c0,3.6,1.6,5.1,4.4,5.1s4.4-1.5,4.4-5.1v-9.7h3.2v9.9c0,5.1-2.9,7.9-7.6,7.9
		C174.9,32.2,172.1,29.5,172.1,24.4z"/>
	<path class="st5" d="M207.5,14.5V32h-2.7l-9.6-11.8V32h-3.2V14.5h2.7l9.6,11.8V14.5H207.5z"/>
	<path class="st5" d="M210.9,23.3c0-5.2,4-9,9.4-9c2.8,0,5.3,1,6.9,2.9l-2.1,2c-1.3-1.4-2.8-2-4.7-2c-3.6,0-6.2,2.5-6.2,6.1
		c0,3.6,2.6,6.1,6.2,6.1c1.8,0,3.4-0.7,4.7-2.1l2.1,2c-1.6,1.9-4.1,2.9-6.9,2.9C214.9,32.2,210.9,28.5,210.9,23.3z"/>
</g>
</svg>
