<svg xmlns="http://www.w3.org/2000/svg" width="245.26" height="207.995" viewBox="0 0 245.26 207.995">
  <g id="Group_25" data-name="Group 25" transform="translate(-1600.601 -1646.813)">
    <path id="Path_119" data-name="Path 119" d="M688.074,324.651l7.466-5.971c-5.8-.64-8.183,2.523-9.158,5.027-4.531-1.881-9.463.584-9.463.584l14.937,5.423A11.3,11.3,0,0,0,688.074,324.651Z" transform="translate(923.683 1362.018)" fill="#3f3d56"/>
    <g id="Group_21" data-name="Group 21" transform="translate(1774.488 1782.62)">
      <ellipse id="Ellipse_20" data-name="Ellipse 20" cx="13.319" cy="27.177" rx="13.319" ry="27.177" transform="translate(0 0)" fill="#d6a6ac"/>
      <path id="Path_108" data-name="Path 108" d="M968.182,598.177c5.335-32.006.054-63.9,0-64.215l-1.038.176c.054.317,5.3,32.04,0,63.867Z" transform="translate(-956.092 -526.515)" fill="#e2e2e2"/>
      <rect id="Rectangle_50" data-name="Rectangle 50" width="1.053" height="13.659" transform="translate(1.094 22.263) rotate(-61.858)" fill="#e2e2e2"/>
      <rect id="Rectangle_51" data-name="Rectangle 51" width="13.66" height="1.053" transform="translate(13.808 31.008) rotate(-28.158)" fill="#e2e2e2"/>
    </g>
    <g id="Group_20" data-name="Group 20" transform="translate(1793.759 1714.729)">
      <ellipse id="Ellipse_21" data-name="Ellipse 21" cx="26.051" cy="53.155" rx="26.051" ry="53.155" transform="translate(0 0)" fill="#88bc8a"/>
      <path id="Path_109" data-name="Path 109" d="M1034.446,526.8c10.42-62.518.105-124.809,0-125.431l-1.038.176c.1.62,10.39,62.743,0,125.082Z" transform="translate(-1011.297 -386.724)" fill="#e2e2e2"/>
      <rect id="Rectangle_52" data-name="Rectangle 52" width="1.053" height="26.716" transform="translate(2.379 43.098) rotate(-61.858)" fill="#e2e2e2"/>
      <rect id="Rectangle_53" data-name="Rectangle 53" width="26.716" height="1.053" transform="translate(27.246 61.085) rotate(-28.158)" fill="#e2e2e2"/>
    </g>
    <g id="Group_22" data-name="Group 22" transform="translate(1722.46 1663.153)">
      <ellipse id="Ellipse_22" data-name="Ellipse 22" cx="35.649" cy="72.738" rx="35.649" ry="72.738" transform="translate(0 0)" fill="#88bc8a"/>
      <path id="Path_110" data-name="Path 110" d="M896.894,472.131c14.253-85.52.144-170.727,0-171.578l-1.038.176c.144.849,14.223,85.889,0,171.229Z" transform="translate(-865.407 -280.476)" fill="#e2e2e2"/>
      <rect id="Rectangle_54" data-name="Rectangle 54" width="1.053" height="36.559" transform="translate(3.349 58.805) rotate(-61.858)" fill="#e2e2e2"/>
      <rect id="Rectangle_55" data-name="Rectangle 55" width="36.559" height="1.053" transform="matrix(0.882, -0.472, 0.472, 0.882, 37.376, 83.766)" fill="#e2e2e2"/>
    </g>
    <path id="Path_113" data-name="Path 113" d="M829.948,230.583l7.382-5.9c-5.734-.633-8.091,2.495-9.055,4.97-4.48-1.86-9.357.578-9.357.578l14.769,5.362a11.176,11.176,0,0,0-3.739-5.006Z" transform="translate(870.873 1422.217)" fill="#3f3d56"/>
  </g>
</svg>
