<svg xmlns="http://www.w3.org/2000/svg" width="253.182" height="186.128" viewBox="0 0 253.182 186.128">
  <g id="Group_19" data-name="Group 19" transform="translate(-5260.041 -2275)">
    <g id="Group_17" data-name="Group 17" transform="translate(5260.041 2276.365)">
      <g id="Group_16" data-name="Group 16" transform="translate(43.125 115.171)">
        <ellipse id="Ellipse_17" data-name="Ellipse 17" cx="12.84" cy="26.2" rx="12.84" ry="26.2" fill="#d6a6ac"/>
        <path id="Path_105" data-name="Path 105" d="M252.72,595.867c-5.143-30.855-.052-61.6,0-61.906l1,.169c-.052.305-5.113,30.888,0,61.57Z" transform="translate(-238.694 -526.783)" fill="#ebedec"/>
        <rect id="Rectangle_44" data-name="Rectangle 44" width="13.168" height="1.015" transform="translate(12.533 26.776) rotate(-28.142)" fill="#ebedec"/>
        <rect id="Rectangle_45" data-name="Rectangle 45" width="1.015" height="13.168" transform="translate(0.279 24.571) rotate(-61.842)" fill="#ebedec"/>
      </g>
      <g id="Group_14" data-name="Group 14" transform="translate(0 49.721)">
        <ellipse id="Ellipse_18" data-name="Ellipse 18" cx="25.114" cy="51.243" rx="25.114" ry="51.243" fill="#88bc8a"/>
        <path id="Path_106" data-name="Path 106" d="M183.682,522.292c-10.045-60.27-.1-120.32,0-120.919l1,.169c-.1.6-10.016,60.487,0,120.584Z" transform="translate(-155.771 -387.251)" fill="#dedede"/>
        <rect id="Rectangle_46" data-name="Rectangle 46" width="25.755" height="1.015" transform="translate(24.743 52.799) rotate(-28.142)" fill="#dedede"/>
        <rect id="Rectangle_47" data-name="Rectangle 47" width="1.015" height="25.755" transform="translate(0.775 47.633) rotate(-61.842)" fill="#dedede"/>
      </g>
      <g id="Group_15" data-name="Group 15" transform="translate(50.229)">
        <ellipse id="Ellipse_19" data-name="Ellipse 19" cx="34.367" cy="70.122" rx="34.367" ry="70.122" fill="#88bc8a"/>
        <path id="Path_107" data-name="Path 107" d="M319.144,465.96c-13.741-82.444-.139-164.587,0-165.407l1,.169c-.139.819-13.712,82.8,0,165.071Z" transform="translate(-280.765 -281.198)" fill="#dedede"/>
        <rect id="Rectangle_48" data-name="Rectangle 48" width="35.244" height="1.015" transform="translate(33.947 72.416) rotate(-28.142)" fill="#dedede"/>
        <rect id="Rectangle_49" data-name="Rectangle 49" width="1.015" height="35.244" transform="matrix(0.472, -0.882, 0.882, 0.472, 1.148, 65.015)" fill="#dedede"/>
      </g>
    </g>
    <path id="Path_111" data-name="Path 111" d="M686.319,323.7l6.291-5.032c-4.887-.539-6.9,2.126-7.717,4.236-3.818-1.585-7.975.492-7.975.492l12.587,4.57A9.526,9.526,0,0,0,686.319,323.7Z" transform="translate(4820.613 1985.086)" fill="#3f3d56"/>
    <path id="Path_112" data-name="Path 112" d="M463.857,260.076l7.99-6.391c-6.207-.685-8.758,2.7-9.8,5.38-4.849-2.014-10.128.625-10.128.625l15.987,5.8A12.1,12.1,0,0,0,463.857,260.076Z" transform="translate(4951.889 2021.404)" fill="#3f3d56"/>
  </g>
</svg>
